<?xml version="1.0" encoding="utf-8"?>
<!-- Generator: Adobe Illustrator 18.0.0, SVG Export Plug-In . SVG Version: 6.00 Build 0)  -->
<!DOCTYPE svg PUBLIC "-//W3C//DTD SVG 1.1//EN" "http://www.w3.org/Graphics/SVG/1.1/DTD/svg11.dtd">
<svg version="1.1" id="Layer_1" xmlns="http://www.w3.org/2000/svg" xmlns:xlink="http://www.w3.org/1999/xlink" x="0px" y="0px"
	 viewBox="257.8 0 675 675" enable-background="new 257.8 0 675 675" xml:space="preserve">
<path d="M666.7,575.9v18.9c0,14.8-10.8,26.9-24.9,29l-4.7,16.8c-2.7,8.8-10.8,15.5-20.2,15.5h-45.1c-9.4,0-18.2-6.7-20.2-15.5
	l-4.7-16.8c-14.1-2-24.9-14.1-24.9-29v-18.9c0-9.4,7.4-18.2,18.2-18.2h109.1C659.3,558.3,666.7,566.4,666.7,575.9z M577.8,35v62
	c0,9.4,7.4,17.5,17.5,17.5c9.4,0,17.5-7.4,17.5-17.5V35c0-9.4-7.4-17.5-17.5-17.5C585.8,17.5,577.8,25.6,577.8,35z M387.8,321.9
	c0-9.4-7.4-17.5-17.5-17.5H309c-9.4,0-17.5,7.4-17.5,17.5c0,9.4,7.4,17.5,17.5,17.5h62C379.8,338.8,387.8,331.4,387.8,321.9z
	 M881.5,304.4h-62c-9.4,0-17.5,7.4-17.5,17.5c0,9.4,7.4,17.5,17.5,17.5h62c9.4,0,17.5-7.4,17.5-17.5
	C899.7,311.8,892.3,304.4,881.5,304.4z M423.5,468.1l-43.8,43.8c-7.4,7.4-7.4,18.2,0,24.9c3.4,3.4,7.4,5.4,12.1,5.4
	c4.7,0,8.8-2,12.1-5.4l43.8-43.8c7.4-7.4,7.4-18.2,0-24.9C441.7,461.4,430.9,461.4,423.5,468.1z M785.9,106.4l-43.8,43.8
	c-7.4,7.4-7.4,18.2,0,24.9c4,3.4,8.1,5.4,12.8,5.4s8.8-2,12.1-5.4l43.8-43.8c7.4-7.4,7.4-18.2,0-24.9
	C803.4,99.7,792.6,99,785.9,106.4z M404,106.4c-7.4-7.4-18.2-7.4-24.9,0c-6.7,7.4-7.4,18.2,0,24.9l44.5,43.8
	c3.4,3.4,7.4,5.4,12.1,5.4s8.8-2,12.1-5.4c7.4-7.4,7.4-18.2,0-24.9L404,106.4z M767,468.1c-7.4-7.4-18.2-7.4-24.9,0
	c-7.4,7.4-7.4,18.2,0,24.9l43.8,43.8c3.4,3.4,7.4,5.4,12.1,5.4s8.8-2,12.1-5.4c7.4-7.4,7.4-18.2,0-24.9L767,468.1z M758.3,323.3
	c0,41.8-16.8,83.5-45.8,113.1c-16.8,17.5-27.6,39.1-31,62.6c-3.4,20.2-20.9,35.7-41.8,35.7h-90.3c-20.9,0-38.4-14.8-41.8-35.7
	c-3.4-23.6-14.8-45.8-31-62.6c-29-30.3-45.1-69.4-45.8-111.1c-0.7-90.3,72.1-164.3,161.6-165h1.3C684.2,161,758.3,233.7,758.3,323.3
	z M721.9,323.3c0-70-57.3-127.3-128-127.3h-0.7c-70,1.3-126.6,58.6-125.9,129.3c0.7,32.3,13.5,62.6,35.7,86.9
	c21.6,22.2,35.7,51.2,40.4,82.2c0.7,3.4,3.4,5.4,6.1,5.4h28.3h33.7h28.3c3.4,0,6.1-2.7,6.1-5.4c4.7-31,18.9-59.3,41.1-82.2
	C709.1,388.6,721.9,356.3,721.9,323.3z M692.3,324c0,53.9-43.8,97.7-97.7,97.7c-53.9,0-97.7-43.8-97.7-97.7s43.8-97.7,97.7-97.7
	C648.5,226.3,692.3,270.1,692.3,324z M644.4,302.4l-18.9-18.9l-43.8,43.1l-18.2-18.2l-18.9,18.9l18.2,18.2l18.9,18.9l18.9-18.9
	L644.4,302.4z"/>
</svg>
